<svg width="64" height="45" viewBox="0 0 64 45" fill="none" xmlns="http://www.w3.org/2000/svg">
<g clip-path="url(#clip0_346_5588)">
<path d="M58.7632 18.8517C56.6326 16.6615 53.8691 15.1938 50.8613 14.6548V6.96055C50.8659 3.40467 48.0187 0.520752 44.5224 0.520752H7.26196C3.76227 0.520752 0.915039 3.40582 0.915039 6.96055V31.6522C0.915039 35.2046 3.76227 38.0943 7.26196 38.0943H36.2869C36.772 38.7926 37.3144 39.4485 37.9095 40.0563C40.6489 42.8783 44.4124 44.4733 48.3443 44.479C52.2775 44.4848 56.0455 42.9012 58.793 40.0884C64.5276 34.2426 64.5138 24.717 58.762 18.8529L58.7632 18.8517ZM48.8546 6.96055V14.4427C48.6666 14.4347 48.4785 14.4301 48.287 14.4301C44.3653 14.4243 40.6099 16.0079 37.8774 18.8196C36.3282 20.3974 35.1506 22.3009 34.4281 24.3914L31.6176 22.3285L48.3203 4.81969C48.6757 5.47674 48.8615 6.21291 48.8604 6.96055H48.8546ZM7.26196 2.52746H44.5224C45.4054 2.52746 46.2654 2.80266 46.9855 3.31294L27.9367 23.2768C27.259 23.9866 26.3784 24.318 25.523 24.185C25.4805 24.1792 25.4393 24.1712 25.398 24.162C24.8269 24.0313 24.3121 23.724 23.9256 23.2837L5.1509 3.09163C5.79305 2.72239 6.5212 2.52746 7.26196 2.52746ZM2.92174 31.6522V6.96055C2.91945 6.06958 3.18433 5.19809 3.682 4.45848L20.2253 22.2539L3.94574 34.5086C3.2818 33.7048 2.9206 32.6945 2.92174 31.6522ZM7.26196 36.0876C6.69893 36.0899 6.14164 35.9798 5.62219 35.7642L21.5967 23.7389L22.4533 24.6608C23.1252 25.4062 24.0151 25.9222 24.9955 26.1355C25.0689 26.1504 25.1434 26.1641 25.2179 26.1756C25.437 26.2089 25.6583 26.2261 25.8807 26.2261C27.2143 26.2077 28.4837 25.6458 29.3919 24.67L30.2232 23.7985L33.8743 26.4795C33.2413 29.7326 33.6771 33.1039 35.1162 36.0887H7.26196V36.0876ZM57.3619 38.6837C54.9906 41.1124 51.7397 42.4792 48.3455 42.4723C44.9513 42.4666 41.705 41.0871 39.3428 38.6493C34.3513 33.5603 34.3376 25.2949 39.3119 20.2243C41.6821 17.7956 44.9341 16.4288 48.3283 16.4345C51.7225 16.4402 54.9699 17.8197 57.3309 20.2575C62.3213 25.3477 62.3328 33.613 57.3619 38.6848V38.6837Z" fill="#3042D4"/>
<path d="M55.5971 23.9074C55.1832 23.5393 54.5502 23.576 54.181 23.9888L45.9386 33.2471L42.471 29.5938C42.0845 29.2188 41.4722 29.2154 41.0823 29.5858C40.6913 29.9561 40.6627 30.5685 41.017 30.9733L44.5408 34.6862L44.6004 34.7424C44.965 35.0704 45.4386 35.2527 45.9294 35.2515H46.0441C46.5738 35.2229 47.0715 34.9832 47.4235 34.5865L55.6854 25.3247C55.862 25.1251 55.9515 24.8637 55.9354 24.5977C55.9193 24.3316 55.7978 24.084 55.5971 23.9074Z" fill="#3042D4"/>
</g>
<defs>
<clipPath id="clip0_346_5588">
<rect width="62.17" height="43.9583" fill="white" transform="translate(0.915039 0.520752)"/>
</clipPath>
</defs>
</svg>
